REM DIRINDEX 1\2,1\3,1\4\5,1\4\6
REM DIRNAME "folder01","folder02","folder03","folder04","folder05","folder06"
TITLE ""
FILE "Step3_Track59.mp3" MP3
  TRACK 01 AUDIO
    TITLE "0:"
    INDEX 01 00:00:00
  TRACK 02 AUDIO
    TITLE "6:cjc166_1193"
    INDEX 01 00:00:22
  TRACK 03 AUDIO
    TITLE "0:"
    INDEX 01 00:01:61
  TRACK 04 AUDIO
    TITLE "6:cjc166_1194"
    INDEX 01 00:02:43
  TRACK 05 AUDIO
    TITLE "0:"
    INDEX 01 00:03:69
  TRACK 06 AUDIO
    TITLE "5:cjc166_1195"
    INDEX 01 00:04:26
  TRACK 07 AUDIO
    TITLE "0:"
    INDEX 01 00:07:18
  TRACK 08 AUDIO
    TITLE "6:cjc166_1196"
    INDEX 01 00:07:71
  TRACK 09 AUDIO
    TITLE "0:"
    INDEX 01 00:09:21
  TRACK 10 AUDIO
    TITLE "5:cjc166_1197"
    INDEX 01 00:09:41
  TRACK 11 AUDIO
    TITLE "0:"
    INDEX 01 00:12:29
  TRACK 12 AUDIO
    TITLE "6:cjc166_1198"
    INDEX 01 00:13:07
  TRACK 13 AUDIO
    TITLE "0:"
    INDEX 01 00:14:38
  TRACK 14 AUDIO
    TITLE "5:cjc166_1199"
    INDEX 01 00:14:71
  TRACK 15 AUDIO
    TITLE "0:"
    INDEX 01 00:17:30
  TRACK 16 AUDIO
    TITLE "6:cjc166_1200"
    INDEX 01 00:18:08
  TRACK 17 AUDIO
    TITLE "0:"
    INDEX 01 00:19:33
  TRACK 18 AUDIO
    TITLE "5:cjc166_1201"
    INDEX 01 00:19:66
  TRACK 19 AUDIO
    TITLE "0:"
    INDEX 01 00:22:73
  TRACK 20 AUDIO
    TITLE "6:cjc166_1202"
    INDEX 01 00:23:54
  TRACK 21 AUDIO
    TITLE "0:"
    INDEX 01 00:25:12
  TRACK 22 AUDIO
    TITLE "5:cjc166_1203"
    INDEX 01 00:25:46
  TRACK 23 AUDIO
    TITLE "0:"
    INDEX 01 00:28:24
  TRACK 24 AUDIO
    TITLE "6:cjc166_1204"
    INDEX 01 00:29:10
  TRACK 25 AUDIO
    TITLE "0:"
    INDEX 01 00:30:37
  TRACK 26 AUDIO
    TITLE "5:cjc166_1205"
    INDEX 01 00:30:66
  TRACK 27 AUDIO
    TITLE "0:"
    INDEX 01 00:33:37
  TRACK 28 AUDIO
    TITLE "6:cjc166_1206"
    INDEX 01 00:34:27
  TRACK 29 AUDIO
    TITLE "0:"
    INDEX 01 00:35:56
  TRACK 30 AUDIO
    TITLE "5:cjc166_1207"
    INDEX 01 00:36:12
  TRACK 31 AUDIO
    TITLE "0:"
    INDEX 01 00:39:04
  TRACK 32 AUDIO
    TITLE "6:cjc166_1208"
    INDEX 01 00:39:57
  TRACK 33 AUDIO
    TITLE "0:"
    INDEX 01 00:40:74
  TRACK 34 AUDIO
    TITLE "5:cjc166_1209"
    INDEX 01 00:41:33
  TRACK 35 AUDIO
    TITLE "0:"
    INDEX 01 00:44:70
  TRACK 36 AUDIO
    TITLE "6:cjc166_1210"
    INDEX 01 00:45:48
  TRACK 37 AUDIO
    TITLE "0:"
    INDEX 01 00:47:02
  TRACK 38 AUDIO
    TITLE "5:cjc166_1211"
    INDEX 01 00:47:29
  TRACK 39 AUDIO
    TITLE "0:"
    INDEX 01 00:49:71
  TRACK 40 AUDIO
    TITLE "6:cjc166_1212"
    INDEX 01 00:50:57
  TRACK 41 AUDIO
    TITLE "0:"
    INDEX 01 00:52:09
  TRACK 42 AUDIO
    TITLE "5:cjc166_1213"
    INDEX 01 00:52:42
  TRACK 43 AUDIO
    TITLE "0:"
    INDEX 01 00:56:13
  TRACK 44 AUDIO
    TITLE "6:cjc166_1214"
    INDEX 01 00:56:75
  TRACK 45 AUDIO
    TITLE "0:"
    INDEX 01 00:58:29
  TRACK 46 AUDIO
    TITLE "5:cjc166_1215"
    INDEX 01 00:58:67
  TRACK 47 AUDIO
    TITLE "0:"
    INDEX 01 01:03:03
  TRACK 48 AUDIO
    TITLE "6:cjc166_1216"
    INDEX 01 01:03:60
  TRACK 49 AUDIO
    TITLE "0:"
    INDEX 01 01:05:08
  TRACK 50 AUDIO
    TITLE "5:cjc166_1217"
    INDEX 01 01:05:37
  TRACK 51 AUDIO
    TITLE "0:"
    INDEX 01 01:09:60
  TRACK 52 AUDIO
    TITLE "6:cjc166_1218"
    INDEX 01 01:10:42
  TRACK 53 AUDIO
    TITLE "0:"
    INDEX 01 01:12:14
  TRACK 54 AUDIO
    TITLE "5:cjc166_1219"
    INDEX 01 01:12:53
  TRACK 55 AUDIO
    TITLE "0:"
    INDEX 01 01:14:42
  TRACK 56 AUDIO
    TITLE "6:cjc166_1220"
    INDEX 01 01:15:26
  TRACK 57 AUDIO
    TITLE "0:"
    INDEX 01 01:16:70
  TRACK 58 AUDIO
    TITLE "5:cjc166_1221"
    INDEX 01 01:17:21
  TRACK 59 AUDIO
    TITLE "0:"
    INDEX 01 01:20:11
  TRACK 60 AUDIO
    TITLE "6:cjc166_1222"
    INDEX 01 01:20:70
  TRACK 61 AUDIO
    TITLE "0:"
    INDEX 01 01:22:38
  TRACK 62 AUDIO
    TITLE "5:cjc166_1223"
    INDEX 01 01:22:69
  TRACK 63 AUDIO
    TITLE "0:"
    INDEX 01 01:24:46
  TRACK 64 AUDIO
    TITLE "6:cjc166_1224"
    INDEX 01 01:25:34
  TRACK 65 AUDIO
    TITLE "0:"
    INDEX 01 01:27:05
  TRACK 66 AUDIO
    TITLE "5:cjc166_1225"
    INDEX 01 01:27:33
  TRACK 67 AUDIO
    TITLE "0:"
    INDEX 01 01:29:45
  TRACK 68 AUDIO
    TITLE "6:cjc166_1226"
    INDEX 01 01:30:27
  TRACK 69 AUDIO
    TITLE "0:"
    INDEX 01 01:32:03
  TRACK 70 AUDIO
    TITLE "5:cjc166_1227"
    INDEX 01 01:32:28
  TRACK 71 AUDIO
    TITLE "0:"
    INDEX 01 01:33:75
  TRACK 72 AUDIO
    TITLE "6:cjc166_1228"
    INDEX 01 01:34:56
  TRACK 73 AUDIO
    TITLE "0:"
    INDEX 01 01:36:22
  TRACK 74 AUDIO
    TITLE "5:cjc166_1229"
    INDEX 01 01:36:48
  TRACK 75 AUDIO
    TITLE "0:"
    INDEX 01 01:39:60
  TRACK 76 AUDIO
    TITLE "6:cjc166_1230"
    INDEX 01 01:40:41
  TRACK 77 AUDIO
    TITLE "0:"
    INDEX 01 01:42:15
  TRACK 78 AUDIO
    TITLE "5:cjc166_1231"
    INDEX 01 01:42:48
  TRACK 79 AUDIO
    TITLE "0:"
    INDEX 01 01:45:29
  TRACK 80 AUDIO
    TITLE "6:cjc166_1232"
    INDEX 01 01:46:11
  TRACK 81 AUDIO
    TITLE "0:"
    INDEX 01 01:47:39
  TRACK 82 AUDIO
    TITLE "5:cjc166_1233"
    INDEX 01 01:47:65
  TRACK 83 AUDIO
    TITLE "0:"
    INDEX 01 01:50:36
  TRACK 84 AUDIO
    TITLE "6:cjc166_1234"
    INDEX 01 01:51:12
  TRACK 85 AUDIO
    TITLE "0:"
    INDEX 01 01:52:56
  TRACK 86 AUDIO
    TITLE "5:cjc166_1235"
    INDEX 01 01:53:26
  TRACK 87 AUDIO
    TITLE "0:"
    INDEX 01 01:56:23
  TRACK 88 AUDIO
    TITLE "6:cjc166_1236"
    INDEX 01 01:57:05
  TRACK 89 AUDIO
    TITLE "0:"
    INDEX 01 01:58:49
  TRACK 90 AUDIO
    TITLE "5:cjc166_1237"
    INDEX 01 01:59:07
  TRACK 91 AUDIO
    TITLE "0:"
    INDEX 01 02:01:53
  TRACK 92 AUDIO
    TITLE "6:cjc166_1238"
    INDEX 01 02:02:43
  TRACK 93 AUDIO
    TITLE "0:"
    INDEX 01 02:04:16
  TRACK 94 AUDIO
    TITLE "5:cjc166_1239"
    INDEX 01 02:04:48
  TRACK 95 AUDIO
    TITLE "0:"
    INDEX 01 02:07:50
  TRACK 96 AUDIO
    TITLE "6:cjc166_1240"
    INDEX 01 02:08:22
  TRACK 97 AUDIO
    TITLE "0:"
    INDEX 01 02:09:72
  TRACK 98 AUDIO
    TITLE "5:cjc166_1241"
    INDEX 01 02:10:27
  TRACK 99 AUDIO
    TITLE "0:"
    INDEX 01 02:13:49
  TRACK 100 AUDIO
    TITLE "6:cjc166_1242"
    INDEX 01 02:14:32
  TRACK 101 AUDIO
    TITLE "0:"
    INDEX 01 02:15:75
  TRACK 102 AUDIO
    TITLE "5:cjc166_1243"
    INDEX 01 02:16:39
  TRACK 103 AUDIO
    TITLE "0:"
    INDEX 01 02:18:40
  TRACK 104 AUDIO
    TITLE "6:cjc166_1244"
    INDEX 01 02:19:26
  TRACK 105 AUDIO
    TITLE "0:"
    INDEX 01 02:21:03
  TRACK 106 AUDIO
    TITLE "5:cjc166_1245"
    INDEX 01 02:21:33
  TRACK 107 AUDIO
    TITLE "0:"
    INDEX 01 02:23:65
  TRACK 108 AUDIO
    TITLE "6:cjc166_1246"
    INDEX 01 02:24:50
  TRACK 109 AUDIO
    TITLE "0:"
    INDEX 01 02:26:22
  TRACK 110 AUDIO
    TITLE "5:cjc166_1247"
    INDEX 01 02:26:59
  TRACK 111 AUDIO
    TITLE "0:"
    INDEX 01 02:29:30
  TRACK 112 AUDIO
    TITLE "6:cjc166_1248"
    INDEX 01 02:30:12
  TRACK 113 AUDIO
    TITLE "0:"
    INDEX 01 02:31:56
  TRACK 114 AUDIO
    TITLE "5:cjc166_1249"
    INDEX 01 02:32:17
  TRACK 115 AUDIO
    TITLE "0:"
    INDEX 01 02:34:29
  TRACK 116 AUDIO
    TITLE "6:cjc166_1250"
    INDEX 01 02:35:11
  TRACK 117 AUDIO
    TITLE "0:"
    INDEX 01 02:36:60
  TRACK 118 AUDIO
    TITLE "5:cjc166_1251"
    INDEX 01 02:37:24
  TRACK 119 AUDIO
    TITLE "0:"
    INDEX 01 02:40:02
  TRACK 120 AUDIO
    TITLE "6:cjc166_1252"
    INDEX 01 02:40:55
  TRACK 121 AUDIO
    TITLE "0:"
    INDEX 01 02:42:07
  TRACK 122 AUDIO
    TITLE "5:cjc166_1253"
    INDEX 01 02:42:43
  TRACK 123 AUDIO
    TITLE "0:"
    INDEX 01 02:44:53
  TRACK 124 AUDIO
    TITLE "6:cjc166_1254"
    INDEX 01 02:45:37
  TRACK 125 AUDIO
    TITLE "0:"
    INDEX 01 02:47:03
  TRACK 126 AUDIO
    TITLE "5:cjc166_1255"
    INDEX 01 02:47:34
  TRACK 127 AUDIO
    TITLE "0:"
    INDEX 01 02:49:17
  TRACK 128 AUDIO
    TITLE "6:cjc166_1256"
    INDEX 01 02:50:09
  TRACK 129 AUDIO
    TITLE "0:"
    INDEX 01 02:51:59
  TRACK 130 AUDIO
    TITLE "5:cjc166_1257"
    INDEX 01 02:52:19
  TRACK 131 AUDIO
    TITLE "0:"
    INDEX 01 02:55:10
  TRACK 132 AUDIO
    TITLE "6:cjc166_1258"
    INDEX 01 02:55:75
  TRACK 133 AUDIO
    TITLE "0:"
    INDEX 01 02:57:46
  TRACK 134 AUDIO
    TITLE "5:cjc166_1259"
    INDEX 01 02:58:02
  TRACK 135 AUDIO
    TITLE "0:"
    INDEX 01 03:01:01
  TRACK 136 AUDIO
    TITLE "6:cjc166_1260"
    INDEX 01 03:01:57
  TRACK 137 AUDIO
    TITLE "0:"
    INDEX 01 03:03:33
  TRACK 138 AUDIO
    TITLE "5:cjc166_1261"
    INDEX 01 03:03:64
  TRACK 139 AUDIO
    TITLE "0:"
    INDEX 01 03:06:37
  TRACK 140 AUDIO
    TITLE "6:cjc166_1262"
    INDEX 01 03:07:23
  TRACK 141 AUDIO
    TITLE "0:"
    INDEX 01 03:08:67
  TRACK 142 AUDIO
    TITLE "5:cjc166_1263"
    INDEX 01 03:09:26
  TRACK 143 AUDIO
    TITLE "0:"
    INDEX 01 03:11:56
  TRACK 144 AUDIO
    TITLE "6:cjc166_1264"
    INDEX 01 03:12:38
  TRACK 145 AUDIO
    TITLE "0:"
    INDEX 01 03:14:17
  TRACK 146 AUDIO
    TITLE "5:cjc166_1265"
    INDEX 01 03:14:48
  TRACK 147 AUDIO
    TITLE "0:"
    INDEX 01 03:16:69
  TRACK 148 AUDIO
    TITLE "6:cjc166_1266"
    INDEX 01 03:17:49
  TRACK 149 AUDIO
    TITLE "0:"
    INDEX 01 03:19:28
  TRACK 150 AUDIO
    TITLE "5:cjc166_1267"
    INDEX 01 03:19:59
  TRACK 151 AUDIO
    TITLE "0:"
    INDEX 01 03:22:01
  TRACK 152 AUDIO
    TITLE "6:cjc166_1268"
    INDEX 01 03:22:64
  TRACK 153 AUDIO
    TITLE "0:"
    INDEX 01 03:24:21
  TRACK 154 AUDIO
    TITLE "5:cjc166_1269"
    INDEX 01 03:24:49
  TRACK 155 AUDIO
    TITLE "0:"
    INDEX 01 03:27:35
  TRACK 156 AUDIO
    TITLE "6:cjc166_1270"
    INDEX 01 03:28:13
  TRACK 157 AUDIO
    TITLE "0:"
    INDEX 01 03:29:66
  TRACK 158 AUDIO
    TITLE "5:cjc166_1271"
    INDEX 01 03:30:22
  TRACK 159 AUDIO
    TITLE "0:"
    INDEX 01 03:32:35
  TRACK 160 AUDIO
    TITLE "6:cjc166_1272"
    INDEX 01 03:33:16
  TRACK 161 AUDIO
    TITLE "0:"
    INDEX 01 03:34:43
  TRACK 162 AUDIO
    TITLE "5:cjc166_1273"
    INDEX 01 03:35:02
  TRACK 163 AUDIO
    TITLE "0:"
    INDEX 01 03:37:18
  TRACK 164 AUDIO
    TITLE "6:cjc166_1274"
    INDEX 01 03:37:71
  TRACK 165 AUDIO
    TITLE "0:"
    INDEX 01 03:39:40
  TRACK 166 AUDIO
    TITLE "5:cjc166_1275"
    INDEX 01 03:40:03
  TRACK 167 AUDIO
    TITLE "0:"
    INDEX 01 03:42:47
  TRACK 168 AUDIO
    TITLE "6:cjc166_1276"
    INDEX 01 03:43:25
  TRACK 169 AUDIO
    TITLE "0:"
    INDEX 01 03:44:75
  TRACK 170 AUDIO
    TITLE "5:cjc166_1277"
    INDEX 01 03:45:31
  TRACK 171 AUDIO
    TITLE "0:"
    INDEX 01 03:47:64
  TRACK 172 AUDIO
    TITLE "6:cjc166_1278"
    INDEX 01 03:48:51
  TRACK 173 AUDIO
    TITLE "0:"
    INDEX 01 03:50:23
  TRACK 174 AUDIO
    TITLE "5:cjc166_1279"
    INDEX 01 03:50:54
  TRACK 175 AUDIO
    TITLE "0:"
    INDEX 01 03:53:48
  TRACK 176 AUDIO
    TITLE "6:cjc166_1280"
    INDEX 01 03:54:32
  TRACK 177 AUDIO
    TITLE "0:"
    INDEX 01 03:56:10
  TRACK 178 AUDIO
    TITLE "5:cjc166_1281"
    INDEX 01 03:56:39
  TRACK 179 AUDIO
    TITLE "0:"
    INDEX 01 03:58:42
  TRACK 180 AUDIO
    TITLE "6:cjc166_1282"
    INDEX 01 03:59:28
  TRACK 181 AUDIO
    TITLE "0:"
    INDEX 01 04:01:01
  TRACK 182 AUDIO
    TITLE "5:cjc166_1283"
    INDEX 01 04:01:34
  TRACK 183 AUDIO
    TITLE "0:"
    INDEX 01 04:03:33
  TRACK 184 AUDIO
    TITLE "6:cjc166_1284"
    INDEX 01 04:04:19
  TRACK 185 AUDIO
    TITLE "0:"
    INDEX 01 04:06:02
  TRACK 186 AUDIO
    TITLE "5:cjc166_1285"
    INDEX 01 04:06:22
  TRACK 187 AUDIO
    TITLE "0:"
    INDEX 01 04:09:18
  TRACK 188 AUDIO
    TITLE "6:cjc166_1286"
    INDEX 01 04:10:08
  TRACK 189 AUDIO
    TITLE "0:"
    INDEX 01 04:11:62
  TRACK 190 AUDIO
    TITLE "5:cjc166_1287"
    INDEX 01 04:12:20
  TRACK 191 AUDIO
    TITLE "0:"
    INDEX 01 04:16:14
  TRACK 192 AUDIO
    TITLE "6:cjc166_1288"
    INDEX 01 04:16:71
  TRACK 193 AUDIO
    TITLE "0:"
    INDEX 01 04:18:37
  TRACK 194 AUDIO
    TITLE "5:cjc166_1289"
    INDEX 01 04:18:70
  TRACK 195 AUDIO
    TITLE "0:"
    INDEX 01 04:22:17
  TRACK 196 AUDIO
    TITLE "6:cjc166_1290"
    INDEX 01 04:23:04
  TRACK 197 AUDIO
    TITLE "0:"
    INDEX 01 04:24:51
  TRACK 198 AUDIO
    TITLE "5:cjc166_1291"
    INDEX 01 04:25:13
  TRACK 199 AUDIO
    TITLE "0:"
    INDEX 01 04:29:09
  TRACK 200 AUDIO
    TITLE "6:cjc166_1292"
    INDEX 01 04:30:01
  TRACK 201 AUDIO
    TITLE "0:"
    INDEX 01 04:31:31
  TRACK 202 AUDIO
    TITLE "5:cjc166_1293"
    INDEX 01 04:31:51
  TRACK 203 AUDIO
    TITLE "0:"
    INDEX 01 04:34:42
  TRACK 204 AUDIO
    TITLE "6:cjc166_1294"
    INDEX 01 04:35:19
  TRACK 205 AUDIO
    TITLE "0:"
    INDEX 01 04:36:66
  TRACK 206 AUDIO
    TITLE "5:cjc166_1295"
    INDEX 01 04:37:20
  TRACK 207 AUDIO
    TITLE "0:"
    INDEX 01 04:39:72
  TRACK 208 AUDIO
    TITLE "6:cjc166_1296"
    INDEX 01 04:40:60
  TRACK 209 AUDIO
    TITLE "0:"
    INDEX 01 04:42:35
  TRACK 210 AUDIO
    TITLE "5:cjc166_1297"
    INDEX 01 04:42:66
  TRACK 211 AUDIO
    TITLE "0:"
    INDEX 01 04:45:41
  TRACK 212 AUDIO
    TITLE "6:cjc166_1298"
    INDEX 01 04:46:31
  TRACK 213 AUDIO
    TITLE "0:"
    INDEX 01 04:48:08
  TRACK 214 AUDIO
    TITLE "5:cjc166_1299"
    INDEX 01 04:48:36
  TRACK 215 AUDIO
    TITLE "0:"
    INDEX 01 04:51:11
  TRACK 216 AUDIO
    TITLE "6:cjc166_1300"
    INDEX 01 04:51:63
  TRACK 217 AUDIO
    TITLE "0:"
    INDEX 01 04:53:39
  TRACK 218 AUDIO
    TITLE "5:cjc166_1301"
    INDEX 01 04:53:70
  TRACK 219 AUDIO
    TITLE "0:"
    INDEX 01 04:56:55
  TRACK 220 AUDIO
    TITLE "6:cjc166_1302"
    INDEX 01 04:57:39
  TRACK 221 AUDIO
    TITLE "0:"
    INDEX 01 04:59:14
  TRACK 222 AUDIO
    TITLE "5:cjc166_1303"
    INDEX 01 04:59:39
  TRACK 223 AUDIO
    TITLE "0:"
    INDEX 01 05:01:36
  TRACK 224 AUDIO
    TITLE "6:cjc166_1304"
    INDEX 01 05:02:14
  TRACK 225 AUDIO
    TITLE "0:"
    INDEX 01 05:03:73
  TRACK 226 AUDIO
    TITLE "5:cjc166_1305"
    INDEX 01 05:04:23
  TRACK 227 AUDIO
    TITLE "0:"
    INDEX 01 05:07:14
  TRACK 228 AUDIO
    TITLE "6:cjc166_1306"
    INDEX 01 05:07:70
  TRACK 229 AUDIO
    TITLE "0:"
    INDEX 01 05:09:42
  TRACK 230 AUDIO
    TITLE "5:cjc166_1307"
    INDEX 01 05:09:69
  TRACK 231 AUDIO
    TITLE "0:"
    INDEX 01 05:12:30
  TRACK 232 AUDIO
    TITLE "6:cjc166_1308"
    INDEX 01 05:13:14
  TRACK 233 AUDIO
    TITLE "0:"
    INDEX 01 05:14:51
  TRACK 234 AUDIO
    TITLE "5:cjc166_1309"
    INDEX 01 05:15:09
  TRACK 235 AUDIO
    TITLE "0:"
    INDEX 01 05:17:22
